<svg xmlns="http://www.w3.org/2000/svg" width="27.706" height="21.769" viewBox="0 0 27.706 21.769">
    <defs>
        <style>
            .prefix__cls-1{fill:#fff}
        </style>
    </defs>
    <g id="prefix__black-back-closed-envelope-shape" transform="translate(0 -59.013)">
        <g id="prefix__Group_47" data-name="Group 47" transform="translate(0 59.013)">
            <path id="prefix__Path_178" d="M41.325 331.989a2.368 2.368 0 0 0 1.621-.612l-7.849-7.85-.543.391q-.881.649-1.43 1.013a8.812 8.812 0 0 1-1.461.742 4.452 4.452 0 0 1-1.7.379h-.031a4.451 4.451 0 0 1-1.7-.379 8.784 8.784 0 0 1-1.461-.742q-.549-.363-1.43-1.013c-.164-.12-.345-.252-.542-.393l-7.851 7.852a2.368 2.368 0 0 0 1.621.612z" class="prefix__cls-1" data-name="Path 178" transform="translate(-16.094 -310.22)"/>
            <path id="prefix__Path_179" d="M1.562 199.9A8.2 8.2 0 0 1 0 198.555V210.5l6.918-6.918q-2.076-1.452-5.356-3.682z" class="prefix__cls-1" data-name="Path 179" transform="translate(0 -191.536)"/>
            <path id="prefix__Path_180" d="M418.679 199.9q-3.159 2.138-5.37 3.682l6.916 6.916v-11.943a8.533 8.533 0 0 1-1.546 1.345z" class="prefix__cls-1" data-name="Path 180" transform="translate(-392.519 -191.536)"/>
            <path id="prefix__Path_181" d="M25.238 59.013H2.48a2.208 2.208 0 0 0-1.832.8 3.119 3.119 0 0 0-.642 2.01 3.613 3.613 0 0 0 .85 2.111 7.67 7.67 0 0 0 1.809 1.785q.526.371 3.17 2.2c.952.659 1.779 1.234 2.49 1.73.606.422 1.129.788 1.56 1.092l.231.164.426.307q.5.363.835.588t.8.5a4.691 4.691 0 0 0 .889.417 2.46 2.46 0 0 0 .773.139h.031a2.461 2.461 0 0 0 .773-.139 4.68 4.68 0 0 0 .889-.417q.471-.278.8-.5t.835-.588l.426-.307.231-.165 1.576-1.08 5.671-3.938a7.354 7.354 0 0 0 1.886-1.9 4.09 4.09 0 0 0 .757-2.334 2.494 2.494 0 0 0-2.474-2.474z" class="prefix__cls-1" data-name="Path 181" transform="translate(-.006 -59.013)"/>
        </g>
    </g>
</svg>
