<svg xmlns="http://www.w3.org/2000/svg" id="prefix__calendar" width="18" height="18" viewBox="0 0 18 18">
    <defs>
        <style>
            .prefix__cls-1{fill:#2c436a}
        </style>
    </defs>
    <g id="prefix__Group_63" data-name="Group 63">
        <g id="prefix__Group_62" data-name="Group 62">
            <path id="prefix__Path_189" d="M16.242 1.547h-1.676v-.492a1.055 1.055 0 1 0-2.109 0v.492H6.551v-.492a1.055 1.055 0 1 0-2.109 0v.505a.351.351 0 0 0-.094-.013h-1.4A1.76 1.76 0 0 0 1.189 3.3v5.993a.352.352 0 0 0 .7 0V5.168h12.677a.352.352 0 1 0 0-.7H1.892V3.3a1.056 1.056 0 0 1 1.055-1.05h1.4a.352.352 0 0 0 .094-.013v.452a1.055 1.055 0 0 0 2.109 0V2.25h5.906v.439a1.055 1.055 0 1 0 2.109 0V2.25h1.676A1.056 1.056 0 0 1 17.3 3.3v13.364a.633.633 0 0 1-1.266 0v-.909a.352.352 0 0 0-.352-.352H11.59a.352.352 0 0 0 0 .7h3.738v.558a1.328 1.328 0 0 0 .16.633H1.336a.634.634 0 0 1-.636-.63v-.558h7.872a.352.352 0 0 0 0-.7H5.059a2.883 2.883 0 1 0-3.757 0h-.95a.352.352 0 0 0-.352.348v.91A1.337 1.337 0 0 0 1.336 18h15.328A1.338 1.338 0 0 0 18 16.664V3.3a1.76 1.76 0 0 0-1.758-1.753zM5.848 2.689a.352.352 0 1 1-.7 0V1.055a.352.352 0 1 1 .7 0zm8.016 0a.352.352 0 1 1-.7 0V1.055a.352.352 0 1 1 .7 0zM1 13.219a2.18 2.18 0 1 1 2.18 2.18A2.182 2.182 0 0 1 1 13.219z" class="prefix__cls-1" data-name="Path 189"/>
        </g>
    </g>
    <g id="prefix__Group_65" data-name="Group 65" transform="translate(16.022 4.478)">
        <g id="prefix__Group_64" data-name="Group 64">
            <path id="prefix__Path_190" d="M451.8 127.1a.325.325 0 1 0 .1.23.328.328 0 0 0-.1-.23z" class="prefix__cls-1" data-name="Path 190" transform="translate(-451.24 -127)"/>
        </g>
    </g>
    <g id="prefix__Group_67" data-name="Group 67" transform="translate(9.929 15.595)">
        <g id="prefix__Group_66" data-name="Group 66">
            <path id="prefix__Path_191" d="M282.136 438.225a.326.326 0 1 0 .1.23.328.328 0 0 0-.1-.23z" class="prefix__cls-1" data-name="Path 191" transform="translate(-281.58 -438.13)"/>
        </g>
    </g>
    <g id="prefix__Group_69" data-name="Group 69" transform="translate(6.703 10.825)">
        <g id="prefix__Group_68" data-name="Group 68">
            <path id="prefix__Path_192" d="M189.482 304a1.237 1.237 0 1 0 1.237 1.237 1.238 1.238 0 0 0-1.237-1.237zm0 1.823a.586.586 0 1 1 .586-.586.587.587 0 0 1-.586.586z" class="prefix__cls-1" data-name="Path 192" transform="translate(-188.245 -304)"/>
        </g>
    </g>
    <g id="prefix__Group_71" data-name="Group 71" transform="translate(10.027 10.825)">
        <g id="prefix__Group_70" data-name="Group 70">
            <path id="prefix__Path_193" d="M282.815 304a1.237 1.237 0 1 0 1.237 1.237 1.238 1.238 0 0 0-1.237-1.237zm0 1.823a.586.586 0 1 1 .586-.586.587.587 0 0 1-.586.586z" class="prefix__cls-1" data-name="Path 193" transform="translate(-281.578 -304)"/>
        </g>
    </g>
    <g id="prefix__Group_73" data-name="Group 73" transform="translate(13.537 10.825)">
        <g id="prefix__Group_72" data-name="Group 72">
            <path id="prefix__Path_194" d="M376.149 304a1.237 1.237 0 1 0 1.237 1.237 1.238 1.238 0 0 0-1.237-1.237zm0 1.823a.586.586 0 1 1 .586-.586.587.587 0 0 1-.586.586z" class="prefix__cls-1" data-name="Path 194" transform="translate(-374.912 -304)"/>
        </g>
    </g>
    <g id="prefix__Group_75" data-name="Group 75" transform="translate(3.38 7.122)">
        <g id="prefix__Group_74" data-name="Group 74">
            <path id="prefix__Path_195" d="M96.149 200a1.237 1.237 0 1 0 1.237 1.237A1.238 1.238 0 0 0 96.149 200zm0 1.823a.586.586 0 1 1 .586-.586.587.587 0 0 1-.586.586z" class="prefix__cls-1" data-name="Path 195" transform="translate(-94.912 -200)"/>
        </g>
    </g>
    <g id="prefix__Group_77" data-name="Group 77" transform="translate(10.027 7.122)">
        <g id="prefix__Group_76" data-name="Group 76">
            <path id="prefix__Path_196" d="M282.815 200a1.237 1.237 0 1 0 1.237 1.237 1.238 1.238 0 0 0-1.237-1.237zm0 1.823a.586.586 0 1 1 .586-.586.587.587 0 0 1-.586.586z" class="prefix__cls-1" data-name="Path 196" transform="translate(-281.578 -200)"/>
        </g>
    </g>
    <g id="prefix__Group_79" data-name="Group 79" transform="translate(13.537 7.122)">
        <g id="prefix__Group_78" data-name="Group 78">
            <path id="prefix__Path_197" d="M376.149 200a1.237 1.237 0 1 0 1.237 1.237 1.238 1.238 0 0 0-1.237-1.237zm0 1.823a.586.586 0 1 1 .586-.586.587.587 0 0 1-.586.586z" class="prefix__cls-1" data-name="Path 197" transform="translate(-374.912 -200)"/>
        </g>
    </g>
    <g id="prefix__Group_81" data-name="Group 81" transform="translate(6.703 7.122)">
        <g id="prefix__Group_80" data-name="Group 80">
            <path id="prefix__Path_198" d="M189.482 200a1.237 1.237 0 1 0 1.237 1.237 1.238 1.238 0 0 0-1.237-1.237zm0 1.823a.586.586 0 1 1 .586-.586.587.587 0 0 1-.586.586z" class="prefix__cls-1" data-name="Path 198" transform="translate(-188.245 -200)"/>
        </g>
    </g>
    <g id="prefix__Group_83" data-name="Group 83" transform="translate(1.666 12.379)">
        <g id="prefix__Group_82" data-name="Group 82">
            <path id="prefix__Path_199" d="M53.633 348.8a.326.326 0 0 0-.46 0l-1.06 1.06-.362-.362a.326.326 0 0 0-.46.46l.592.592a.326.326 0 0 0 .46 0l1.29-1.29a.325.325 0 0 0 0-.46z" class="prefix__cls-1" data-name="Path 199" transform="translate(-51.194 -348.7)"/>
        </g>
    </g>
</svg>
