<svg xmlns="http://www.w3.org/2000/svg" xmlns:xlink="http://www.w3.org/1999/xlink" width="18" height="18" viewBox="0 0 18 18">
  <defs>
    <clipPath id="clip-icons">
      <rect width="18" height="18"/>
    </clipPath>
  </defs>
  <g id="icons" clip-path="url(#clip-icons)">
    <rect width="18" height="18" fill="#fff"/>
    <g id="Group_181" data-name="Group 181" transform="translate(77.962 84.729)">
      <path id="Path_339" data-name="Path 339" d="M-69.039-75.828q0,3.768,0,7.536c0,.576.006.592.572.43.3-.085.552-.095.629.248s-.257.315-.454.406c-1.157.531-2.224-.021-3.3-.3-1.939-.5-3.863-1.059-5.8-1.571a.626.626,0,0,1-.568-.714q.026-6.053,0-12.107a.6.6,0,0,1,.537-.691c2.581-.687,5.157-1.392,7.733-2.1a1.069,1.069,0,0,1,.589,0q3.958,1.087,7.92,2.162a.457.457,0,0,1,.371.511q0,3.291,0,6.582c0,.25-.063.5-.371.488-.286-.014-.3-.264-.3-.492,0-1.993-.009-3.986.007-5.979a.565.565,0,0,0-.5-.659q-3.269-.857-6.524-1.765c-.448-.125-.56-.048-.556.427C-69.027-80.885-69.039-78.356-69.039-75.828Zm-.675-.02q0-1.306,0-2.613c0-1.675-.011-3.35.008-5.025,0-.406-.117-.5-.488-.375a8.009,8.009,0,0,1-1.208.325c-.533.085-.684.358-.676.88.032,1.926,0,3.853.041,5.778a1.618,1.618,0,0,1-.578,1.394c-.52.449-.53.494-1.006.009-.236-.24-.367-.18-.556.029-.139.154-.267.366-.535.3a2.249,2.249,0,0,1-1.019-1.326q0-2.362,0-4.724c0-1.18,0-1.171-1.146-.853a.483.483,0,0,0-.409.561q.017,5.653,0,11.305a.471.471,0,0,0,.428.544c2.211.584,4.42,1.178,6.62,1.8.473.134.532-.013.53-.427C-69.721-70.789-69.715-73.318-69.714-75.848Zm-3.007-3.831c0-1.021-.011-2.042.006-3.062.006-.328-.094-.411-.4-.32-.5.146-.994.29-1.5.4-.34.075-.45.241-.446.589.018,1.54.007,3.08.008,4.62,0,.3,0,.6,0,.9,0,.234.162.359.317.484s.237-.037.33-.118c.5-.443.511-.453,1.047.024.181.16.287.153.454-.012a.685.685,0,0,0,.183-.546C-72.723-77.7-72.722-78.691-72.722-79.679Z" fill="#d22c2c"/>
      <path id="Path_340" data-name="Path 340" d="M18.984,15.418a4.066,4.066,0,1,1,4.055,4.043A4.072,4.072,0,0,1,18.984,15.418Zm.684-.045A3.373,3.373,0,0,0,23.043,18.8a3.4,3.4,0,0,0,0-6.81A3.387,3.387,0,0,0,19.668,15.374Z" transform="translate(-87.199 -86.388)" fill="#d22c2c"/>
      <path id="Path_341" data-name="Path 341" d="M-35.171,35.2c0,.314,0,.628,0,.942,0,.265.047.614-.322.619-.412.006-.344-.365-.348-.642,0-.31,0-.619,0-.948-.291.049-.378.254-.531.371-.168.129-.331.165-.488,0a.309.309,0,0,1,0-.452c.357-.376.721-.747,1.1-1.1a.373.373,0,0,1,.542.019c.35.336.691.681,1.032,1.026a.337.337,0,0,1,.017.528c-.169.171-.333.1-.483-.036-.133-.121-.262-.247-.393-.371Z" transform="translate(-36.88 -106.682)" fill="#d22c2c"/>
      <path id="Path_342" data-name="Path 342" d="M44.694,34.2a.524.524,0,0,1-.2.427c-.258.262-.493.548-.772.785s-.222.412.023.632c.311.278.6.585.888.886.139.143.217.311.042.482a.344.344,0,0,1-.53-.015c-.312-.3-.629-.6-.921-.924-.2-.218-.336-.26-.551-.011-.272.316-.589.593-.885.888-.172.172-.376.263-.572.082-.212-.2-.092-.388.081-.557.31-.3.607-.624.927-.918.2-.181.186-.31,0-.486-.319-.3-.614-.616-.926-.919-.176-.171-.288-.369-.078-.557.188-.168.4-.1.575.083.292.3.607.578.882.892.213.243.356.208.556-.012.292-.322.613-.617.92-.924a.359.359,0,0,1,.413-.09C44.694,33.995,44.684,34.127,44.694,34.2Z" transform="translate(-107.092 -106.702)" fill="#d22c2c"/>
    </g>
  </g>
</svg>
