<?xml version="1.0"?>
<svg xmlns="http://www.w3.org/2000/svg" id="Capa_1" enable-background="new 0 0 510.462 510.462" height="512px" viewBox="0 0 510.462 510.462" width="512px" class=""><g><g><g><path d="m412.856 502.964h-315.25c-14.636 0-26.5-11.864-26.5-26.5v-406.117c0-14.636 11.864-26.5 26.5-26.5h315.25c14.636 0 26.5 11.864 26.5 26.5v406.117c0 14.635-11.864 26.5-26.5 26.5z" fill="#d4cfd5" data-original="#D4CFD5" class=""/><path d="m378.459 465.66h-246.456c-10.125 0-18.333-8.208-18.333-18.333v-352.626c0-10.125 8.208-18.333 18.333-18.333h246.455c10.125 0 18.333 8.208 18.333 18.333v352.626c.001 10.125-8.207 18.333-18.332 18.333z" fill="#f7f8f4" data-original="#F7F8F4" class=""/><path d="m319.316 40.26v48.303c0 4.886-3.961 8.848-8.848 8.848h-110.475c-4.886 0-8.848-3.961-8.848-8.848v-48.303c0-4.886 3.961-8.848 8.848-8.848h12.065c1.657 0 3-1.343 3-3v-6.727c0-7.834 6.351-14.185 14.185-14.185h51.976c7.834 0 14.185 6.351 14.185 14.185v6.728c0 1.657 1.343 3 3 3h12.065c4.886-.001 8.847 3.961 8.847 8.847z" fill="#a6e7f0" data-original="#A6E7F0" class="" style="fill:#FFB229" data-old_color="#a6e7f0"/><path d="m122.611 502.962h-25c-14.64 0-26.5-11.86-26.5-26.5v-406.12c0-14.63 11.86-26.5 26.5-26.5h25c-14.64 0-26.5 11.87-26.5 26.5v406.12c0 14.64 11.86 26.5 26.5 26.5z" fill="#c5bec6" data-original="#C5BEC6"/><path d="m157.001 465.662h-25c-10.12 0-18.33-8.21-18.33-18.33v-352.63c0-10.13 8.21-18.33 18.33-18.33h25c-10.12 0-18.33 8.2-18.33 18.33v352.63c0 10.12 8.21 18.33 18.33 18.33z" fill="#eee" data-original="#EEE" class=""/><path d="m254.241 7.502c-7.83 0-14.18 6.35-14.18 14.18v6.73c0 1.66-1.35 3-3 3h-12.07c-4.88 0-8.85 3.96-8.85 8.85v48.3c0 4.89 3.97 8.85 8.85 8.85h-25c-4.88 0-8.85-3.96-8.85-8.85v-48.3c0-4.89 3.97-8.85 8.85-8.85h12.07c1.65 0 3-1.34 3-3v-6.73c0-7.83 6.35-14.18 14.18-14.18z" fill="#6bd9e7" data-original="#6BD9E7" class="active-path" style="fill:#FFB229" data-old_color="#6bd9e7"/></g><g><path d="m150.231 495.462h-52.62c-10.477 0-19-8.523-19-19v-275.23c0-4.142-3.358-7.5-7.5-7.5s-7.5 3.358-7.5 7.5v275.23c0 18.748 15.252 34 34 34h52.62c4.142 0 7.5-3.358 7.5-7.5s-3.358-7.5-7.5-7.5z" data-original="#000000" class=""/><path d="m439.351 384.732c-4.142 0-7.5 3.358-7.5 7.5v84.23c0 10.477-8.523 19-19 19h-228.62c-4.142 0-7.5 3.358-7.5 7.5s3.358 7.5 7.5 7.5h228.62c18.748 0 34-15.252 34-34v-84.23c0-4.142-3.358-7.5-7.5-7.5z" data-original="#000000" class=""/><path d="m412.851 36.342h-86.53c-1.763-7.124-8.192-12.429-15.853-12.429h-7.564v-2.228c0-11.957-9.728-21.685-21.685-21.685h-51.976c-11.957 0-21.685 9.728-21.685 21.685v2.228h-7.564c-7.661 0-14.091 5.305-15.853 12.429h-86.53c-18.748 0-34 15.252-34 34v96.89c0 4.142 3.358 7.5 7.5 7.5s7.5-3.358 7.5-7.5v-96.89c0-10.477 8.523-19 19-19h86.035v17.53h-51.645c-14.243 0-25.83 11.587-25.83 25.83v352.63c0 14.243 11.587 25.83 25.83 25.83h246.46c14.243 0 25.83-11.587 25.83-25.83v-352.63c0-14.243-11.587-25.83-25.83-25.83h-51.645v-17.53h86.035c10.477 0 19 8.523 19 19v287.89c0 4.142 3.358 7.5 7.5 7.5s7.5-3.358 7.5-7.5v-287.89c0-18.748-15.252-34-34-34zm-214.205 3.918c0-.743.604-1.348 1.348-1.348h12.064c5.79 0 10.5-4.71 10.5-10.5v-6.728c0-3.686 2.999-6.685 6.685-6.685h51.976c3.686 0 6.685 2.999 6.685 6.685v6.728c0 5.79 4.71 10.5 10.5 10.5h12.064c.743 0 1.348.604 1.348 1.348v48.303c0 .743-.604 1.348-1.348 1.348h-110.474c-.743 0-1.348-.604-1.348-1.348zm179.815 417.902h-246.46c-5.972 0-10.83-4.858-10.83-10.83v-215.141h42.352c4.036 0 7.724-2.382 9.412-6.107l16.927-37.922 23.115 69.345c1.395 4.167 5.133 6.928 9.526 7.032.086.002.171.003.256.003 4.282 0 8.025-2.555 9.579-6.558l19.408-49.81 6.573 25.338c1.091 4.22 4.6 7.229 8.938 7.667 4.342.435 8.377-1.813 10.291-5.737l22.629-46.516 8.848 64.635c.587 4.328 3.859 7.824 8.142 8.7 4.283.874 8.666-1.058 10.896-4.796l21.299-35.49h39.93v225.356c-.001 5.973-4.859 10.831-10.831 10.831zm0-374.29c5.972 0 10.83 4.858 10.83 10.83v112.273h-42.591c-3.626 0-7.021 1.933-8.831 4.999l-15.795 26.319-9.138-66.75c-.615-4.527-4.058-8.056-8.567-8.782s-8.888 1.543-10.898 5.66l-23.833 48.99-7.021-27.067c-1.122-4.345-4.886-7.442-9.365-7.707-4.478-.265-8.58 2.367-10.203 6.543l-19.96 51.228-22.813-68.439c-1.345-4.068-4.978-6.835-9.255-7.052-4.274-.213-8.177 2.174-9.928 6.09l-20.615 46.184h-39.307v-122.489c0-5.972 4.858-10.83 10.83-10.83h51.645v4.691c0 9.014 7.333 16.348 16.348 16.348h110.475c9.014 0 16.348-7.333 16.348-16.348v-4.691z" data-original="#000000" class=""/><path d="m345.62 311.817h-180.778c-4.142 0-7.5 3.358-7.5 7.5s3.358 7.5 7.5 7.5h180.778c4.142 0 7.5-3.358 7.5-7.5s-3.358-7.5-7.5-7.5z" data-original="#000000" class=""/><path d="m345.62 407.466h-180.778c-4.142 0-7.5 3.358-7.5 7.5s3.358 7.5 7.5 7.5h180.778c4.142 0 7.5-3.358 7.5-7.5s-3.358-7.5-7.5-7.5z" data-original="#000000" class=""/><path d="m345.62 359.642h-180.778c-4.142 0-7.5 3.358-7.5 7.5s3.358 7.5 7.5 7.5h180.778c4.142 0 7.5-3.358 7.5-7.5s-3.358-7.5-7.5-7.5z" data-original="#000000" class=""/></g></g></g> </svg>
