<svg xmlns="http://www.w3.org/2000/svg" id="prefix__clock" width="18" height="18" viewBox="0 0 18 18">
    <defs>
        <style>
            .prefix__cls-1{fill:#2c436a}
        </style>
    </defs>
    <path id="prefix__Path_200" d="M9 0a9 9 0 1 0 9 9 9 9 0 0 0-9-9zm0 16.945A7.945 7.945 0 1 1 16.945 9 7.954 7.954 0 0 1 9 16.945z" class="prefix__cls-1" data-name="Path 200"/>
    <circle id="prefix__Ellipse_12" cx=".5" cy=".5" r=".5" class="prefix__cls-1" data-name="Ellipse 12" transform="translate(8.097 1.5)"/>
    <circle id="prefix__Ellipse_13" cx=".5" cy=".5" r=".5" class="prefix__cls-1" data-name="Ellipse 13" transform="translate(1.821 8.903)"/>
    <circle id="prefix__Ellipse_14" cx=".5" cy=".5" r=".5" class="prefix__cls-1" data-name="Ellipse 14" transform="translate(15.5 8.903)"/>
    <circle id="prefix__Ellipse_15" cx=".5" cy=".5" r=".5" class="prefix__cls-1" data-name="Ellipse 15" transform="translate(8.097 15.179)"/>
    <path id="prefix__Path_201" d="M170 143.373l-2.006 2.013a1.352 1.352 0 0 0-1.262.087l-1.295-1.083a.449.449 0 1 0-.576.689l1.31 1.1a1.347 1.347 0 1 0 2.473-.171l1.991-2a.449.449 0 1 0-.636-.634zm-2.237 3.559a.449.449 0 1 1 0-.635.449.449 0 0 1 .001.635z" class="prefix__cls-1" data-name="Path 201" transform="translate(-158.346 -137.871)"/>
</svg>
