<svg xmlns="http://www.w3.org/2000/svg" id="prefix__coupon" width="23.593" height="13.858" viewBox="0 0 23.593 13.858">
    <defs>
        <style>
            .prefix__cls-1{fill:#ffa304}
        </style>
    </defs>
    <path id="prefix__Path_164" d="M23.13 4.064a.463.463 0 0 0 .463-.463V.463A.463.463 0 0 0 23.13 0H.463A.463.463 0 0 0 0 .463V3.6a.463.463 0 0 0 .463.463 2.865 2.865 0 0 1 0 5.73.463.463 0 0 0-.463.464V13.4a.463.463 0 0 0 .463.463h4.114a.463.463 0 1 0 0-.926H.926v-2.246a3.791 3.791 0 0 0 0-7.525V.925H16.82v.925a.463.463 0 1 0 .926 0V.925h4.922v2.242a3.791 3.791 0 0 0 0 7.525v2.241h-4.923v-.926a.463.463 0 0 0-.926 0v.926H8.377a.463.463 0 1 0 0 .926H23.13a.463.463 0 0 0 .463-.463v-3.139a.463.463 0 0 0-.463-.463 2.865 2.865 0 0 1 0-5.73zm0 0" class="prefix__cls-1" data-name="Path 164"/>
    <path id="prefix__Path_165" d="M365.483 107.9a.463.463 0 0 0 .463-.463v-3.385a.463.463 0 1 0-.926 0v3.385a.463.463 0 0 0 .463.463zm0 0" class="prefix__cls-1" data-name="Path 165" transform="translate(-348.2 -98.82)"/>
    <path id="prefix__Path_166" d="M149.659 71.951a1.819 1.819 0 1 0-1.284.531 1.8 1.8 0 0 0 1.284-.531zm-2.176-1.284a.891.891 0 1 1 .261.63.885.885 0 0 1-.26-.63zm0 0" class="prefix__cls-1" data-name="Path 166" transform="translate(-139.805 -65.678)"/>
    <path id="prefix__Path_167" d="M237.23 158.434a1.817 1.817 0 1 0 2.569 0 1.818 1.818 0 0 0-2.569 0zm1.915.654a.892.892 0 1 1-.63-.261.892.892 0 0 1 .63.261zm0 0" class="prefix__cls-1" data-name="Path 167" transform="translate(-225.792 -150.627)"/>
    <path id="prefix__Path_168" d="M169.391 96.453l4.82-4.82a.463.463 0 0 0-.654-.654l-4.82 4.82a.463.463 0 1 0 .654.654zm0 0" class="prefix__cls-1" data-name="Path 168" transform="translate(-160.834 -86.657)"/>
    <path id="prefix__Path_169" d="M130.823 280.555a.463.463 0 1 0 .454.376.467.467 0 0 0-.454-.376zm0 0" class="prefix__cls-1" data-name="Path 169" transform="translate(-124.354 -267.627)"/>
</svg>
