<svg xmlns="http://www.w3.org/2000/svg" xmlns:xlink="http://www.w3.org/1999/xlink" width="18" height="18" viewBox="0 0 18 18">
  <defs>
    <clipPath id="clip-icons_2">
      <rect width="18" height="18"/>
    </clipPath>
  </defs>
  <g id="icons_2" data-name="icons – 2" clip-path="url(#clip-icons_2)">
    <rect width="18" height="18" fill="#fff"/>
    <g id="Group_182" data-name="Group 182" transform="translate(1005.645 273.284)">
      <path id="Path_343" data-name="Path 343" d="M-992.135-268.706c-.385.082-5.417,2.056-5.932,2.319a1.064,1.064,0,0,0-.042.483q0,2.466,0,4.931,0,2.235,0,4.471a1.292,1.292,0,0,0,.049.517,1.94,1.94,0,0,0,.225-.06c1.505-.609,5.375-2.363,5.727-2.6,0-.318,0-.654,0-.991a2.469,2.469,0,0,1,.019-.367.368.368,0,0,1,.316-.293.384.384,0,0,1,.394.255.785.785,0,0,1,.03.226c0,.461,0,.922,0,1.383a.465.465,0,0,1-.3.473c-.084.037-.167.077-.251.114l-6.146,2.73c-.056.025-.115.044-.169.074a.578.578,0,0,1-.572.006c-.206-.1-.42-.188-.631-.282l-5.683-2.523c-.55-.244-.55-.245-.551-.858q0-5.139,0-10.278c0-.046,0-.092,0-.138.006-.456.033-.5.475-.669,2.106-.81,4.215-1.614,6.319-2.429a.913.913,0,0,1,.709,0q3.157,1.222,6.319,2.429a2.305,2.305,0,0,1,.254.109.384.384,0,0,1,.216.331c0,.061,0,.123,0,.184q0,1.06,0,2.12a1.171,1.171,0,0,1-.015.229.388.388,0,0,1-.358.3.371.371,0,0,1-.375-.333,2.48,2.48,0,0,1-.012-.322c0-.4,0-.8,0-1.2C-992.111-268.462-992.125-268.567-992.135-268.706Zm-12.719.02a.947.947,0,0,0-.03.168c0,3.3,0,6.6,0,9.927,1.944.876,3.88,1.732,5.817,2.586a.455.455,0,0,0,.152,0c.009-.093.025-.181.026-.27,0-.261,0-.522,0-.783q0-4.4,0-8.8a1.575,1.575,0,0,0-.031-.524,18.575,18.575,0,0,0-2.636-1.011.816.816,0,0,0-.05.446c0,1.075,0,2.151,0,3.226a2.435,2.435,0,0,1-.022.413.375.375,0,0,1-.351.312.382.382,0,0,1-.388-.324,2.6,2.6,0,0,1-.017-.413q0-1.8,0-3.595c0-.15-.013-.3-.019-.429A14.421,14.421,0,0,0-1004.854-268.686Zm3.922.642c.059.026.1.046.144.063.7.278,1.4.553,2.1.835a.616.616,0,0,0,.487-.043q2.547-1.01,5.1-2.015a1.888,1.888,0,0,0,.2-.106,16.2,16.2,0,0,0-2.532-1.023C-996.4-270-1000.556-268.274-1000.932-268.044Zm-3.236-1.273c.676.267,1.262.491,1.84.731a.678.678,0,0,0,.571-.006c.605-.259,1.217-.5,1.827-.752.992-.405,1.986-.808,2.975-1.22.118-.049.281-.051.339-.238-.528-.2-1.06-.4-1.582-.612a.766.766,0,0,0-.616.007c-1.684.654-3.372,1.3-5.059,1.947C-1003.942-269.432-1004.006-269.4-1004.169-269.317Z" transform="translate(0)" fill="#4abfd7"/>
      <path id="Path_344" data-name="Path 344" d="M-875.885-203.944q-1.1,0-2.208,0a1.9,1.9,0,0,1-.366-.022.376.376,0,0,1-.292-.366.36.36,0,0,1,.3-.358,1.71,1.71,0,0,1,.32-.023q2.277,0,4.553,0a1.661,1.661,0,0,1,.32.024.37.37,0,0,1,.3.361.373.373,0,0,1-.257.346,1.456,1.456,0,0,1-.362.036C-874.352-203.942-875.119-203.944-875.885-203.944Z" transform="translate(-114.709 -61.081)" fill="#4abfd7"/>
      <path id="Path_345" data-name="Path 345" d="M-876.326-183.414h1.658a2.391,2.391,0,0,1,.322.012.355.355,0,0,1,.317.339.373.373,0,0,1-.312.4,1.99,1.99,0,0,1-.321.013h-3.453a2.047,2.047,0,0,1-.321-.013.376.376,0,0,1-.32-.389.366.366,0,0,1,.315-.344,2.183,2.183,0,0,1,.321-.014Z" transform="translate(-114.703 -80.336)" fill="#4abfd7"/>
      <path id="Path_346" data-name="Path 346" d="M-877.151-162.194c.353,0,.706-.006,1.059,0,.3.007.473.161.461.393-.011.215-.172.357-.449.36-.737.007-1.474,0-2.211,0a.733.733,0,0,1-.226-.032.373.373,0,0,1-.234-.362.369.369,0,0,1,.266-.338,1.254,1.254,0,0,1,.274-.024c.353,0,.706,0,1.059,0Z" transform="translate(-114.709 -99.516)" fill="#4abfd7"/>
      <path id="Path_347" data-name="Path 347" d="M-988.8-144.211a6.244,6.244,0,0,1,.013-1,1.246,1.246,0,0,1,.736.265v1A1.657,1.657,0,0,1-988.8-144.211Z" transform="translate(-15.216 -114.876)" fill="#4abfd7"/>
      <path id="Path_348" data-name="Path 348" d="M-974.071-138.622a3.9,3.9,0,0,1,.011-1.068,2.4,2.4,0,0,1,.715.294c0,.276.006.563,0,.851a1.134,1.134,0,0,1-.034.185A3.192,3.192,0,0,1-974.071-138.622Z" transform="translate(-28.513 -119.862)" fill="#4abfd7"/>
    </g>
  </g>
</svg>
