<svg xmlns="http://www.w3.org/2000/svg" width="193.06" height="42.173" viewBox="0 0 193.06 42.173"><g transform="translate(-22.273 -14.049)"><g transform="translate(-37.786 -187.864)"><g transform="translate(73.583 201.913)"><g transform="translate(0.387 0.387)"><rect width="39.905" height="41.164" fill="#ec4d19"/></g><path d="M196.475,202.688a.388.388,0,0,1,.388.387v39.614a.388.388,0,0,1-.388.387H158.12a.387.387,0,0,1-.387-.387V203.075a.387.387,0,0,1,.387-.387h38.355m0-.775H158.12a1.163,1.163,0,0,0-1.162,1.162v39.614a1.164,1.164,0,0,0,1.162,1.162h38.355a1.164,1.164,0,0,0,1.162-1.162V203.075a1.163,1.163,0,0,0-1.162-1.162Z" transform="translate(-156.958 -201.913)" fill="#182362"/></g><g transform="translate(77.95 203.971)"><g transform="translate(0.291 0.291)"><path d="M2.47,0H9.153a2.47,2.47,0,0,1,2.47,2.47v0a2.47,2.47,0,0,1-2.47,2.47H2.47A2.47,2.47,0,0,1,0,2.47v0A2.47,2.47,0,0,1,2.47,0Z" fill="#fff"/></g><g transform="translate(0 0)"><path d="M198.125,217.241a1.743,1.743,0,0,1,1.743,1.743v.872a1.743,1.743,0,0,1-1.743,1.743h-7.555a1.743,1.743,0,0,1-1.743-1.743v-.872a1.743,1.743,0,0,1,1.743-1.743h7.555m0-.581h-7.555a2.327,2.327,0,0,0-2.325,2.325v.872a2.327,2.327,0,0,0,2.325,2.325h7.555a2.327,2.327,0,0,0,2.325-2.325v-.872a2.327,2.327,0,0,0-2.325-2.325Z" transform="translate(-188.246 -216.66)" fill="#182362"/></g></g><g transform="translate(99.662 204.585)"><g transform="translate(0.291 0.291)"><path d="M347.691,226.722a1.792,1.792,0,1,1,1.792-1.792A1.794,1.794,0,0,1,347.691,226.722Z" transform="translate(-345.899 -223.138)" fill="#fff"/></g><g transform="translate(0 0)"><path d="M345.9,221.637a1.5,1.5,0,1,1-1.5,1.5,1.5,1.5,0,0,1,1.5-1.5m0-.581a2.082,2.082,0,1,0,2.082,2.082,2.085,2.085,0,0,0-2.082-2.082Z" transform="translate(-343.816 -221.056)" fill="#030504"/></g></g><g transform="translate(105.731 204.585)"><g transform="translate(0.291 0.291)"><path d="M391.18,226.722a1.792,1.792,0,1,1,1.792-1.792A1.794,1.794,0,0,1,391.18,226.722Z" transform="translate(-389.388 -223.138)" fill="#fff"/></g><g transform="translate(0 0)"><path d="M389.388,221.637a1.5,1.5,0,1,1-1.5,1.5,1.5,1.5,0,0,1,1.5-1.5m0-.581a2.082,2.082,0,1,0,2.082,2.082,2.085,2.085,0,0,0-2.082-2.082Z" transform="translate(-387.306 -221.056)" fill="#030504"/></g></g><g transform="translate(83.306 217.868)"><path d="M236.872,336.74a10.29,10.29,0,0,1-5.757-1.776l.218-.321a10,10,0,0,0,.962.576,9.857,9.857,0,0,0,13.319-4.146l.014-.026.344.177-.016.031A10.23,10.23,0,0,1,236.872,336.74Zm-8.653-4.767a10.255,10.255,0,0,1,4.194-14.713l.169.349a9.782,9.782,0,0,0-4.433,4.292,9.855,9.855,0,0,0,.4,9.866Zm18.888-4.752-.386-.027c.017-.23.025-.465.025-.7a9.87,9.87,0,0,0-10.28-9.865l-.017-.387A10.257,10.257,0,0,1,247.133,326.5C247.133,326.737,247.124,326.982,247.107,327.221Z" transform="translate(-226.627 -316.234)" fill="#182362"/></g><g transform="translate(85.359 219.92)"><circle cx="7.539" cy="7.539" r="7.539" transform="translate(0 15.014) rotate(-84.72)" fill="#1db9f0"/></g><g transform="translate(90.488 225.049)"><g transform="translate(0.395 0)"><rect width="0.194" height="7.935" transform="translate(0 0.137) rotate(-45)" fill="#fff"/></g><g transform="translate(0 0.395)"><rect width="0.194" height="7.935" transform="translate(0 0.137) rotate(-45)" fill="#fff"/></g></g><g transform="translate(60.06 243.214)"><rect width="67.727" height="0.872" fill="#182362"/></g></g><g transform="translate(-0.06 -501.913)"><g transform="translate(93.999 526.99)"><path d="M94,530.813h4.726v16.863H107v3.953H94Z" transform="translate(-93.999 -529.701)" fill="#090a09"/><path d="M148.92,564.734l-.278-1.513h-.093a5.441,5.441,0,0,1-4.324,1.853,4.63,4.63,0,0,1-4.88-4.633c0-3.922,3.521-5.806,8.864-5.775v-.216c0-.8-.432-1.946-2.749-1.946a8.494,8.494,0,0,0-4.169,1.143l-.865-3.027a12.464,12.464,0,0,1,5.868-1.328c5.034,0,6.64,2.965,6.64,6.517v5.25a23.431,23.431,0,0,0,.216,3.675Zm-.556-7.134c-2.471-.031-4.386.556-4.386,2.378a1.686,1.686,0,0,0,1.853,1.792,2.565,2.565,0,0,0,2.44-1.73,3.369,3.369,0,0,0,.093-.8Z" transform="translate(-126.157 -542.805)" fill="#090a09"/><path d="M207.487,560.713c0,1.977.062,3.583.123,4.849h-4.076l-.217-2.131h-.092A5.387,5.387,0,0,1,198.5,565.9c-3.058,0-5.312-1.915-5.312-6.579v-8.864h4.726v8.123c0,2.193.71,3.521,2.347,3.521a2.527,2.527,0,0,0,2.347-1.637,2.625,2.625,0,0,0,.154-1.019v-8.988h4.725Z" transform="translate(-164.339 -543.633)" fill="#090a09"/><path d="M249.6,554.449c0-1.884-.062-3.49-.124-4.818h4.077l.216,2.069h.092a5.529,5.529,0,0,1,4.664-2.409c3.088,0,5.4,2.038,5.4,6.486v8.957h-4.695v-8.37c0-1.946-.679-3.274-2.378-3.274a2.505,2.505,0,0,0-2.378,1.76,3.231,3.231,0,0,0-.186,1.174v8.709H249.6Z" transform="translate(-204.255 -542.805)" fill="#090a09"/><path d="M319.243,526.99v17.419c0,1.7.062,3.49.123,4.509H315.2l-.216-2.223h-.062a5.272,5.272,0,0,1-4.725,2.563c-3.583,0-6.455-3.058-6.455-7.752-.031-5.1,3.15-8.03,6.764-8.03a4.6,4.6,0,0,1,3.985,1.7h.062V526.99Zm-4.694,13.219a7.67,7.67,0,0,0-.062-.834,2.821,2.821,0,0,0-2.749-2.316c-2.131,0-3.243,1.915-3.243,4.293,0,2.564,1.267,4.17,3.212,4.17a2.749,2.749,0,0,0,2.718-2.255,4,4,0,0,0,.124-1.081Z" transform="translate(-242.738 -526.99)" fill="#090a09"/><path d="M364.29,554.6c0-2.224-.062-3.675-.124-4.973h4.046l.154,2.78h.124a4.436,4.436,0,0,1,4.077-3.12,4.842,4.842,0,0,1,.988.062v4.417a6.729,6.729,0,0,0-1.266-.123,3.017,3.017,0,0,0-3.212,2.378,5.493,5.493,0,0,0-.093,1.05v7.659H364.29Z" transform="translate(-285.591 -542.805)" fill="#090a09"/></g><g transform="translate(187.997 528.102)"><path d="M427.976,541.87h-8.092v7.505H428.9v2.254H417.2V530.813h11.242v2.255h-8.555v6.578h8.092Z" transform="translate(-417.197 -530.813)" fill="#ec4d19"/><path d="M459.146,550.055,470.7,533.16v-.092H460.134v-2.255h14.053v1.637L462.7,549.282v.093h11.644v2.254h-15.2Z" transform="translate(-446.946 -530.813)" fill="#ec4d19"/></g></g></g></svg>