<svg xmlns="http://www.w3.org/2000/svg" id="prefix__Tracking" width="21.411" height="16.415" viewBox="0 0 21.411 16.415">
    <defs>
        <style>
            .prefix__cls-1{fill:#2cd285}
        </style>
    </defs>
    <path id="prefix__Path_156" d="M23.306 25.744l-4.43-4.43a1.063 1.063 0 0 0-.757-.314h-6.127v.714h1.784v5.353h.714v-5.353h3.629a.357.357 0 0 1 .253.1l.609.609h-1.637a.714.714 0 0 0-.714.714v3.212a.714.714 0 0 0 .714.714H22.7v2.855a.357.357 0 0 1-.357.357H21.6a2.495 2.495 0 0 0-4.939 0h-5.055a2.495 2.495 0 0 0-4.939 0h-.742a.357.357 0 0 1-.357-.357v-3.209h-.713v3.212a1.071 1.071 0 0 0 1.071 1.071h.742a2.49 2.49 0 0 0 .725 1.427H2v.714h17.128a2.5 2.5 0 0 0 2.472-2.141h.742a1.071 1.071 0 0 0 1.071-1.071V26a.357.357 0 0 0-.1-.252zM7.353 30.635a1.784 1.784 0 1 1 1.784 1.784 1.784 1.784 0 0 1-1.784-1.784zm3.529 1.784a2.49 2.49 0 0 0 .725-1.427h5.053a2.49 2.49 0 0 0 .725 1.427zm8.247 0a1.784 1.784 0 1 1 1.784-1.784 1.784 1.784 0 0 1-1.785 1.784zm-1.784-6.066v-3.212h2.35l3 3v.209z" class="prefix__cls-1" data-name="Path 156" transform="translate(-2 -16.718)"/>
    <rect id="prefix__Rectangle_18" height=".667" class="prefix__cls-1" data-name="Rectangle 18" transform="translate(6.966 13.207)"/>
    <path id="prefix__Rectangle_19" d="M0 0H0.667V0.667H0z" class="prefix__cls-1" data-name="Rectangle 19" transform="translate(16.966 13.207)"/>
    <path id="prefix__Rectangle_20" d="M0 0H1.333V0.667H0z" class="prefix__cls-1" data-name="Rectangle 20" transform="translate(.3 12.541)"/>
    <path id="prefix__Rectangle_21" d="M0 0H1.333V0.667H0z" class="prefix__cls-1" data-name="Rectangle 21" transform="translate(.3 11.207)"/>
    <path id="prefix__Rectangle_22" d="M0 0H0.667V0.667H0z" class="prefix__cls-1" data-name="Rectangle 22" transform="translate(.966 9.874)"/>
    <path id="prefix__Path_157" d="M6.639 18.278A4.639 4.639 0 1 0 2 13.639a4.639 4.639 0 0 0 4.639 4.639zm0-8.564a3.925 3.925 0 1 1-3.925 3.925 3.925 3.925 0 0 1 3.925-3.925z" class="prefix__cls-1" data-name="Path 157" transform="translate(-2 -9)"/>
    <path id="prefix__Path_158" d="M10.5 19.423a.357.357 0 0 0 .252-.1C10.98 19.089 13 17.029 13 15.5a2.5 2.5 0 1 0-5 0c0 1.531 2.016 3.591 2.246 3.821a.357.357 0 0 0 .254.102zm0-5.709a1.786 1.786 0 0 1 1.782 1.786c0 .916-1.123 2.331-1.784 3.051-.661-.721-1.784-2.136-1.784-3.051a1.786 1.786 0 0 1 1.786-1.786z" class="prefix__cls-1" data-name="Path 158" transform="translate(-5.859 -11.573)"/>
    <path id="prefix__Path_159" d="M14.141 18.071a1.071 1.071 0 1 0-1.071 1.071 1.071 1.071 0 0 0 1.071-1.071zm-1.427 0a.357.357 0 1 1 .357.357.357.357 0 0 1-.357-.357z" class="prefix__cls-1" data-name="Path 159" transform="translate(-8.432 -14.145)"/>
    <path id="prefix__Rectangle_23" d="M0 0H1.333V0.667H0z" class="prefix__cls-1" data-name="Rectangle 23" transform="translate(13.633 11.207)"/>
</svg>
