<svg xmlns="http://www.w3.org/2000/svg" width="22" height="22" viewBox="0 0 22 22">
    <g id="prefix__twitter-sign" transform="translate(-.003)">
        <path id="prefix__Path_177" d="M20.793 1.21A3.973 3.973 0 0 0 17.878 0H4.128a3.974 3.974 0 0 0-2.915 1.21A3.974 3.974 0 0 0 0 4.125v13.75a3.974 3.974 0 0 0 1.21 2.915A3.973 3.973 0 0 0 4.128 22h13.75A4.132 4.132 0 0 0 22 17.875V4.125a3.974 3.974 0 0 0-1.207-2.915zm-3.96 7.255a3.8 3.8 0 0 1 .014.387 8.667 8.667 0 0 1-1.425 4.734 9.027 9.027 0 0 1-1.722 1.962 7.746 7.746 0 0 1-2.406 1.36 8.757 8.757 0 0 1-3.008.509 8.441 8.441 0 0 1-4.616-1.346 5.8 5.8 0 0 0 .716.043 5.942 5.942 0 0 0 3.738-1.289 2.854 2.854 0 0 1-1.74-.6 3.057 3.057 0 0 1-1.067-1.49 4.033 4.033 0 0 0 .558.057 2.8 2.8 0 0 0 .73-.114 3.009 3.009 0 0 1-1.762-1.038 2.86 2.86 0 0 1-.716-1.912V9.7a3.552 3.552 0 0 0 1.432.372 2.837 2.837 0 0 1-1.3-2.507 2.979 2.979 0 0 1 .415-1.518 8.526 8.526 0 0 0 2.75 2.22 8.516 8.516 0 0 0 3.466.931 2.765 2.765 0 0 1-.072-.687A3.008 3.008 0 0 1 13.825 5.5a2.859 2.859 0 0 1 2.192.945 5.983 5.983 0 0 0 1.919-.73A2.925 2.925 0 0 1 16.6 7.391a6.376 6.376 0 0 0 1.737-.491 5.849 5.849 0 0 1-1.504 1.565z" data-name="Path 177" style="fill:#fff"/>
    </g>
</svg>
