<svg xmlns="http://www.w3.org/2000/svg" id="prefix__whatsapp" width="22.231" height="22.231" viewBox="0 0 22.231 22.231">
    <defs>
        <style>
            .prefix__cls-1{fill:#fff}.prefix__cls-2{fill:#2c436a}
        </style>
    </defs>
    <rect id="prefix__Rectangle_33" width="20" height="21" class="prefix__cls-1" data-name="Rectangle 33" rx="4" transform="translate(1 .231)"/>
    <g id="prefix__Group_49" data-name="Group 49" transform="translate(8.147 8.086)">
        <g id="prefix__Group_48" data-name="Group 48">
            <path id="prefix__Path_182" d="M188.053 184.709c-.039-.064-.142-.1-.3-.18s-.918-.448-1.059-.5a.517.517 0 0 0-.166-.04.214.214 0 0 0-.183.117c-.1.154-.4.5-.491.6a.215.215 0 0 1-.166.088.382.382 0 0 1-.169-.05 4.183 4.183 0 0 1-1.247-.762 4.677 4.677 0 0 1-.863-1.066c-.09-.153-.009-.237.069-.313s.154-.181.233-.27a1.019 1.019 0 0 0 .154-.256.282.282 0 0 0-.014-.27c-.038-.077-.348-.833-.478-1.142-.1-.229-.193-.259-.273-.259h-.076c-.089 0-.191-.014-.3-.014a.571.571 0 0 0-.413.194 1.716 1.716 0 0 0-.543 1.282 2.961 2.961 0 0 0 .634 1.59 6.329 6.329 0 0 0 2.647 2.322 4.836 4.836 0 0 0 1.514.438 2.476 2.476 0 0 0 .346-.054 1.57 1.57 0 0 0 1.046-.731 1.268 1.268 0 0 0 .098-.724z" class="prefix__cls-2" data-name="Path 182" transform="translate(-181.776 -180.4)"/>
        </g>
    </g>
    <g id="prefix__Group_52" data-name="Group 52">
        <g id="prefix__Group_51" data-name="Group 51">
            <g id="prefix__Group_50" data-name="Group 50">
                <path id="prefix__Path_183" d="M16.268 0H5.964A6.044 6.044 0 0 0 0 5.964v10.3a6.044 6.044 0 0 0 5.964 5.964h10.3a6.045 6.045 0 0 0 5.964-5.965V5.964A6.044 6.044 0 0 0 16.268 0zM20.8 16.266a4.59 4.59 0 0 1-4.529 4.53H5.964a4.59 4.59 0 0 1-4.529-4.53V5.964a4.591 4.591 0 0 1 4.529-4.53h10.3a4.59 4.59 0 0 1 4.536 4.53z" class="prefix__cls-1" data-name="Path 183"/>
                <path id="prefix__Path_184" d="M95.61 88.32a7.023 7.023 0 0 0-7.039 6.991 6.941 6.941 0 0 0 .84 3.315l-1.036 3.059a.717.717 0 0 0 .9.914l3.216-1.021a7.1 7.1 0 0 0 3.122.723 6.991 6.991 0 1 0 0-13.981zm0 12.548a5.64 5.64 0 0 1-2.71-.691.72.72 0 0 0-.563-.055l-2.149.682.686-2.022a.719.719 0 0 0-.067-.6 5.506 5.506 0 0 1-.8-2.866 5.605 5.605 0 1 1 5.6 5.556z" class="prefix__cls-2" data-name="Path 184" transform="translate(-84.377 -84.361)"/>
            </g>
        </g>
    </g>
</svg>
